<svg width="128" height="32" viewBox="0 0 128 32" fill="none" xmlns="http://www.w3.org/2000/svg">
<g clip-path="url(#clip0_204_880)">
<path d="M112 28C118.627 28 124 22.6274 124 16C124 9.37258 118.627 4 112 4C105.373 4 100 9.37258 100 16C100 22.6274 105.373 28 112 28Z" stroke="#4D5A66" stroke-width="2" stroke-miterlimit="10"/>
<path d="M107 20H117" stroke="#4D5A66" stroke-width="2" stroke-linecap="round" stroke-linejoin="round"/>
<path d="M107.5 15C108.328 15 109 14.3284 109 13.5C109 12.6716 108.328 12 107.5 12C106.672 12 106 12.6716 106 13.5C106 14.3284 106.672 15 107.5 15Z" fill="#4D5A66"/>
<path d="M116.5 15C117.328 15 118 14.3284 118 13.5C118 12.6716 117.328 12 116.5 12C115.672 12 115 12.6716 115 13.5C115 14.3284 115.672 15 116.5 15Z" fill="#4D5A66"/>
</g>
<g clip-path="url(#clip1_204_880)">
<path d="M64 28C70.6274 28 76 22.6274 76 16C76 9.37258 70.6274 4 64 4C57.3726 4 52 9.37258 52 16C52 22.6274 57.3726 28 64 28Z" stroke="#4D5A66" stroke-width="2" stroke-miterlimit="10"/>
<path d="M69.1973 21.9999C68.6701 21.0881 67.9124 20.3311 67.0001 19.8048C66.0879 19.2784 65.0532 19.0014 64 19.0013C62.9468 19.0013 61.9122 19.2784 60.9999 19.8047C60.0876 20.331 59.3299 21.088 58.8027 21.9998" stroke="#4D5A66" stroke-width="2" stroke-linecap="round" stroke-linejoin="round"/>
<path d="M59.5 15C60.3284 15 61 14.3284 61 13.5C61 12.6716 60.3284 12 59.5 12C58.6716 12 58 12.6716 58 13.5C58 14.3284 58.6716 15 59.5 15Z" fill="#4D5A66"/>
<path d="M68.5 15C69.3284 15 70 14.3284 70 13.5C70 12.6716 69.3284 12 68.5 12C67.6716 12 67 12.6716 67 13.5C67 14.3284 67.6716 15 68.5 15Z" fill="#4D5A66"/>
<path d="M59.5 15C60.3284 15 61 14.3284 61 13.5C61 12.6716 60.3284 12 59.5 12C58.6716 12 58 12.6716 58 13.5C58 14.3284 58.6716 15 59.5 15Z" fill="#4D5A66"/>
<path d="M68.5 15C69.3284 15 70 14.3284 70 13.5C70 12.6716 69.3284 12 68.5 12C67.6716 12 67 12.6716 67 13.5C67 14.3284 67.6716 15 68.5 15Z" fill="#4D5A66"/>
</g>
<g clip-path="url(#clip2_204_880)">
<path d="M16 28C22.6274 28 28 22.6274 28 16C28 9.37258 22.6274 4 16 4C9.37258 4 4 9.37258 4 16C4 22.6274 9.37258 28 16 28Z" stroke="#4D5A66" stroke-width="2" stroke-linecap="round" stroke-linejoin="round"/>
<path d="M21.1973 18.9995C20.6701 19.9113 19.9124 20.6683 19.0001 21.1947C18.0879 21.721 17.0532 21.9981 16 21.9981C14.9468 21.9981 13.9122 21.721 12.9999 21.1947C12.0876 20.6684 11.3299 19.9114 10.8027 18.9996" stroke="#4D5A66" stroke-width="2" stroke-linecap="round" stroke-linejoin="round"/>
<path d="M11.5 15C12.3284 15 13 14.3284 13 13.5C13 12.6716 12.3284 12 11.5 12C10.6716 12 10 12.6716 10 13.5C10 14.3284 10.6716 15 11.5 15Z" fill="#4D5A66"/>
<path d="M20.5 15C21.3284 15 22 14.3284 22 13.5C22 12.6716 21.3284 12 20.5 12C19.6716 12 19 12.6716 19 13.5C19 14.3284 19.6716 15 20.5 15Z" fill="#4D5A66"/>
</g>
<defs>
<clipPath id="clip0_204_880">
<rect width="32" height="32" fill="white" transform="translate(96)"/>
</clipPath>
<clipPath id="clip1_204_880">
<rect width="32" height="32" fill="white" transform="translate(48)"/>
</clipPath>
<clipPath id="clip2_204_880">
<rect width="32" height="32" fill="white"/>
</clipPath>
</defs>
</svg>
