<svg width="18" height="19" viewBox="0 0 18 19" fill="none" xmlns="http://www.w3.org/2000/svg">
<g clip-path="url(#clip0_204_978)">
<path d="M2.8125 5.84375H15.1875C15.3367 5.84375 15.4798 5.78449 15.5852 5.679C15.6907 5.57351 15.75 5.43043 15.75 5.28125C15.75 5.13207 15.6907 4.98899 15.5852 4.8835C15.4798 4.77801 15.3367 4.71875 15.1875 4.71875H2.8125C2.66332 4.71875 2.52024 4.77801 2.41475 4.8835C2.30926 4.98899 2.25 5.13207 2.25 5.28125C2.25 5.43043 2.30926 5.57351 2.41475 5.679C2.52024 5.78449 2.66332 5.84375 2.8125 5.84375Z" fill="#4D5A66"/>
<path d="M15.1875 7.53125H6.1875C6.03832 7.53125 5.89524 7.59051 5.78975 7.696C5.68426 7.80149 5.625 7.94457 5.625 8.09375C5.625 8.24293 5.68426 8.38601 5.78975 8.4915C5.89524 8.59699 6.03832 8.65625 6.1875 8.65625H15.1875C15.3367 8.65625 15.4798 8.59699 15.5852 8.4915C15.6907 8.38601 15.75 8.24293 15.75 8.09375C15.75 7.94457 15.6907 7.80149 15.5852 7.696C15.4798 7.59051 15.3367 7.53125 15.1875 7.53125Z" fill="#4D5A66"/>
<path d="M15.1876 10.3438H2.81299C2.6638 10.3438 2.52073 10.403 2.41524 10.5085C2.30975 10.614 2.25049 10.7571 2.25049 10.9062C2.25049 11.0554 2.30975 11.1985 2.41524 11.304C2.52073 11.4095 2.6638 11.4688 2.81299 11.4688H15.1876C15.3368 11.4688 15.4798 11.4095 15.5853 11.304C15.6908 11.1985 15.7501 11.0554 15.7501 10.9062C15.7501 10.7571 15.6908 10.614 15.5853 10.5085C15.4798 10.403 15.3368 10.3438 15.1876 10.3438Z" fill="#4D5A66"/>
<path d="M15.1876 13.1562H6.18799C6.0388 13.1562 5.89573 13.2155 5.79024 13.321C5.68475 13.4265 5.62549 13.5696 5.62549 13.7188C5.62549 13.8679 5.68475 14.011 5.79024 14.1165C5.89573 14.222 6.0388 14.2812 6.18799 14.2812H15.1876C15.3368 14.2812 15.4798 14.222 15.5853 14.1165C15.6908 14.011 15.7501 13.8679 15.7501 13.7188C15.7501 13.5696 15.6908 13.4265 15.5853 13.321C15.4798 13.2155 15.3368 13.1562 15.1876 13.1562Z" fill="#4D5A66"/>
</g>
<defs>
<clipPath id="clip0_204_978">
<rect width="18" height="18" fill="white" transform="translate(0 0.5)"/>
</clipPath>
</defs>
</svg>
