<svg width="18" height="19" viewBox="0 0 18 19" fill="none" xmlns="http://www.w3.org/2000/svg">
<g clip-path="url(#clip0_204_987)">
<path d="M4.49951 5.97144V3.15894H13.4995V5.97144" stroke="#4D5A66" stroke-width="1.125" stroke-linecap="round" stroke-linejoin="round"/>
<path d="M13.4995 11.0339H4.49951V15.8152H13.4995V11.0339Z" stroke="#4D5A66" stroke-width="1.125" stroke-linecap="round" stroke-linejoin="round"/>
<path d="M4.49951 12.7214H1.96826V7.09644C1.96826 6.47511 2.51391 5.97144 3.18701 5.97144H14.812C15.4851 5.97144 16.0308 6.47511 16.0308 7.09644V12.7214H13.4995" stroke="#4D5A66" stroke-width="1.125" stroke-linecap="round" stroke-linejoin="round"/>
<path d="M13.2188 9.34644C13.6847 9.34644 14.0625 8.96868 14.0625 8.50269C14.0625 8.0367 13.6847 7.65894 13.2188 7.65894C12.7528 7.65894 12.375 8.0367 12.375 8.50269C12.375 8.96868 12.7528 9.34644 13.2188 9.34644Z" fill="#4D5A66"/>
</g>
<defs>
<clipPath id="clip0_204_987">
<rect width="18" height="18" fill="white" transform="translate(0 0.346436)"/>
</clipPath>
</defs>
</svg>
